<svg width="216" height="40" viewBox="0 0 216 40" fill="none" xmlns="http://www.w3.org/2000/svg">
<g clip-path="url(#clip0_19_628)">
<path d="M34.1382 22.9109H40.0072V24.7406C40.7205 23.9581 41.5836 23.3712 42.5963 22.9799C43.6091 22.5887 44.6678 22.393 45.7724 22.393C48.0971 22.393 49.8117 23.0029 50.9165 24.2228C52.0442 25.4196 52.6081 27.0537 52.6081 29.125V39.482H46.532V29.919C46.532 28.0548 45.6803 27.1226 43.9773 27.1226C43.1947 27.1226 42.4812 27.3069 41.8367 27.6751C41.1923 28.0204 40.6516 28.561 40.2143 29.2976V39.482H34.1382V22.9109ZM155.711 15.3503H172.834V20.4943H161.821V25.0168H169.865V29.8155H161.821V34.3379H172.834V39.482H155.711V15.3503ZM175.265 15.3503H181.375V34.3379H191.87V39.482H175.265V15.3503ZM193.605 15.3503H202.271C204.917 15.3503 207.23 15.8336 209.21 16.8003C211.189 17.7669 212.708 19.1594 213.767 20.9776C214.848 22.7728 215.389 24.8787 215.389 27.2952C215.389 31.3 214.215 34.3379 211.868 36.4094C209.52 38.4577 206.264 39.482 202.098 39.482H193.605V15.3503ZM202.616 34.3379C204.71 34.3379 206.31 33.7051 207.414 32.4393C208.542 31.1735 209.106 29.4589 209.106 27.2952C209.106 25.316 208.542 23.6934 207.414 22.4276C206.31 21.1387 204.779 20.4943 202.823 20.4943H199.716V34.3379H202.616Z" fill="#F2CE4F"/>
<path d="M55.5466 15.3505H66.1796C68.9876 15.3505 71.2315 16.087 72.9117 17.56C74.5919 19.033 75.4317 21.0929 75.4317 23.7396C75.4317 26.4556 74.5919 28.5613 72.9117 30.0574C71.2545 31.5303 69.0107 32.2669 66.1796 32.2669H61.6571V39.4822H55.5466V15.3505ZM65.2129 27.1228C66.4329 27.1228 67.3879 26.8697 68.0784 26.3634C68.792 25.857 69.1486 24.9825 69.1486 23.7396C69.1486 22.4968 68.8034 21.6452 68.1129 21.1849C67.4226 20.7246 66.456 20.4945 65.2129 20.4945H61.6571V27.1228H65.2129ZM87.0228 40.0001C84.9743 40.0001 83.1792 39.6318 81.6372 38.8953C80.0949 38.1356 78.8982 37.1002 78.0467 35.7882C77.218 34.4533 76.8039 32.9227 76.8039 31.1967C76.8039 29.4705 77.218 27.9515 78.0467 26.6396C78.8982 25.3047 80.0949 24.269 81.6372 23.5325C83.1792 22.773 84.9743 22.3932 87.0228 22.3932C89.071 22.3932 90.8663 22.773 92.4083 23.5325C93.9503 24.269 95.1357 25.3047 95.9641 26.6396C96.8158 27.9515 97.2416 29.4705 97.2416 31.1967C97.2416 32.9227 96.8158 34.4533 95.9641 35.7882C95.1357 37.1002 93.9503 38.1356 92.4083 38.8953C90.8663 39.6318 89.071 40.0001 87.0228 40.0001ZM87.0228 35.2704C88.2425 35.2704 89.2092 34.9137 89.9227 34.2002C90.659 33.4636 91.0273 32.4625 91.0273 31.1967C91.0273 29.9309 90.659 28.9412 89.9227 28.2276C89.2092 27.4911 88.2425 27.1228 87.0228 27.1228C85.803 27.1228 84.8247 27.4911 84.0881 28.2276C83.3748 28.9412 83.0179 29.9309 83.0179 31.1967C83.0179 32.4625 83.3748 33.4636 84.0881 34.2002C84.8247 34.9137 85.803 35.2704 87.0228 35.2704ZM102.89 20.7016C101.969 20.7016 101.198 20.4024 100.577 19.804C99.9552 19.2056 99.6444 18.4461 99.6444 17.5255C99.6444 16.6279 99.9552 15.8799 100.577 15.2815C101.198 14.6601 101.969 14.3494 102.89 14.3494C103.787 14.3494 104.547 14.6601 105.168 15.2815C105.813 15.8799 106.135 16.6279 106.135 17.5255C106.135 18.4231 105.813 19.1826 105.168 19.804C104.547 20.4024 103.787 20.7016 102.89 20.7016ZM99.8514 22.9111H105.927V39.4822H99.8514V22.9111ZM109.253 22.9111H115.122V24.7408C115.835 23.9583 116.698 23.3714 117.711 22.9801C118.724 22.5889 119.782 22.3932 120.887 22.3932C123.212 22.3932 124.926 23.0031 126.031 24.223C127.159 25.4198 127.723 27.0539 127.723 29.1252V39.4822H121.647V29.9192C121.647 28.055 120.795 27.1228 119.092 27.1228C118.309 27.1228 117.596 27.3071 116.951 27.6753C116.307 28.0206 115.766 28.5613 115.329 29.2978V39.4822H109.253V22.9111ZM137.842 40.0001C135.794 40.0001 134.24 39.4362 133.181 38.3083C132.146 37.1576 131.628 35.5926 131.628 33.6132V27.1228H129.28V22.9111H131.628V17.9398H137.704V22.9111H141.502V27.1228H137.704V32.7848C137.704 33.6823 137.865 34.3267 138.187 34.7181C138.533 35.1091 139.131 35.3048 139.982 35.3048C140.742 35.3048 141.502 35.0977 142.261 34.6834V39.2061C141.663 39.4822 141.018 39.6779 140.328 39.7928C139.66 39.931 138.832 40.0001 137.842 40.0001Z" fill="#2D315B"/>
<path fill-rule="evenodd" clip-rule="evenodd" d="M27.9327 29.5307C26.6829 30.6153 25.5 31.8082 24.3499 32.9971C22.6262 34.5453 21.0463 36.2468 19.6295 38.0802C18.7128 39.2554 18.4464 39.5968 17.2044 39.5968C15.7292 39.5968 15.3299 39.0654 14.321 37.7269C13.0585 36.0146 11.631 34.4304 10.0592 32.9971C9.22009 32.1231 8.29852 31.3322 7.30731 30.6355C4.42889 28.6344 2.24751 25.7841 1.06799 22.4828C-0.111535 19.1816 -0.230272 15.5944 0.728368 12.2223C1.68701 8.85034 3.67513 5.86205 6.41494 3.67506C9.15472 1.48805 12.5093 0.21161 16.0099 0.0240922C19.5105 -0.163427 22.9822 0.747345 25.94 2.62913C28.8978 4.51093 31.1937 7.26974 32.5072 10.52C33.8204 13.7704 34.0857 17.3498 33.2655 20.7581C32.4453 24.1665 30.5811 27.2335 27.9327 29.5307ZM16.9096 23.8093C18.1381 23.8093 19.339 23.445 20.3605 22.7625C21.382 22.08 22.1781 21.1099 22.6482 19.9749C23.1184 18.8399 23.2414 17.591 23.0017 16.3861C22.762 15.1812 22.1704 14.0744 21.3018 13.2057C20.4331 12.337 19.3263 11.7455 18.1214 11.5058C16.9165 11.2661 15.6676 11.3892 14.5326 11.8593C13.3976 12.3294 12.4275 13.1255 11.745 14.147C11.0625 15.1685 10.6982 16.3694 10.6982 17.5979C10.6982 19.2453 11.3526 20.8252 12.5175 21.99C13.6824 23.1549 15.2623 23.8093 16.9096 23.8093Z" fill="#F2CE4F"/>
</g>
<defs>
<clipPath id="clip0_19_628">
<rect width="216" height="40" fill="white"/>
</clipPath>
</defs>
</svg>
