<svg width="217" height="40" viewBox="0 0 217 40" fill="none" xmlns="http://www.w3.org/2000/svg">
<g clip-path="url(#clip0_19_634)">
<path d="M34.6382 22.9109H40.5072V24.7406C41.2205 23.9581 42.0836 23.3712 43.0963 22.9799C44.1091 22.5887 45.1678 22.393 46.2724 22.393C48.5971 22.393 50.3117 23.0029 51.4165 24.2228C52.5442 25.4196 53.1081 27.0537 53.1081 29.125V39.482H47.032V29.919C47.032 28.0548 46.1803 27.1226 44.4773 27.1226C43.6947 27.1226 42.9812 27.3069 42.3367 27.6751C41.6923 28.0204 41.1516 28.561 40.7143 29.2976V39.482H34.6382V22.9109ZM156.211 15.3503H173.334V20.4943H162.321V25.0168H170.365V29.8155H162.321V34.3379H173.334V39.482H156.211V15.3503ZM175.765 15.3503H181.875V34.3379H192.37V39.482H175.765V15.3503ZM194.105 15.3503H202.771C205.417 15.3503 207.73 15.8336 209.71 16.8003C211.689 17.7669 213.208 19.1594 214.267 20.9776C215.348 22.7728 215.889 24.8787 215.889 27.2952C215.889 31.3 214.715 34.3379 212.368 36.4094C210.02 38.4577 206.764 39.482 202.598 39.482H194.105V15.3503ZM203.116 34.3379C205.21 34.3379 206.81 33.7051 207.914 32.4393C209.042 31.1735 209.606 29.4589 209.606 27.2952C209.606 25.316 209.042 23.6934 207.914 22.4276C206.81 21.1387 205.279 20.4943 203.323 20.4943H200.216V34.3379H203.116Z" fill="#F2CE4F"/>
<path d="M56.0466 15.3505H66.6796C69.4876 15.3505 71.7315 16.087 73.4117 17.56C75.0919 19.033 75.9317 21.0929 75.9317 23.7396C75.9317 26.4556 75.0919 28.5613 73.4117 30.0574C71.7545 31.5303 69.5107 32.2669 66.6796 32.2669H62.1571V39.4822H56.0466V15.3505ZM65.7129 27.1228C66.9329 27.1228 67.8879 26.8697 68.5784 26.3634C69.292 25.857 69.6486 24.9825 69.6486 23.7396C69.6486 22.4968 69.3034 21.6452 68.6129 21.1849C67.9226 20.7246 66.956 20.4945 65.7129 20.4945H62.1571V27.1228H65.7129ZM87.5228 40.0001C85.4743 40.0001 83.6792 39.6318 82.1372 38.8953C80.5949 38.1356 79.3982 37.1002 78.5467 35.7882C77.718 34.4533 77.3039 32.9227 77.3039 31.1967C77.3039 29.4705 77.718 27.9515 78.5467 26.6396C79.3982 25.3047 80.5949 24.269 82.1372 23.5325C83.6792 22.773 85.4743 22.3932 87.5228 22.3932C89.571 22.3932 91.3663 22.773 92.9083 23.5325C94.4503 24.269 95.6357 25.3047 96.4641 26.6396C97.3158 27.9515 97.7416 29.4705 97.7416 31.1967C97.7416 32.9227 97.3158 34.4533 96.4641 35.7882C95.6357 37.1002 94.4503 38.1356 92.9083 38.8953C91.3663 39.6318 89.571 40.0001 87.5228 40.0001ZM87.5228 35.2704C88.7425 35.2704 89.7092 34.9137 90.4227 34.2002C91.159 33.4636 91.5273 32.4625 91.5273 31.1967C91.5273 29.9309 91.159 28.9412 90.4227 28.2276C89.7092 27.4911 88.7425 27.1228 87.5228 27.1228C86.303 27.1228 85.3247 27.4911 84.5881 28.2276C83.8748 28.9412 83.5179 29.9309 83.5179 31.1967C83.5179 32.4625 83.8748 33.4636 84.5881 34.2002C85.3247 34.9137 86.303 35.2704 87.5228 35.2704ZM103.39 20.7016C102.469 20.7016 101.698 20.4024 101.077 19.804C100.455 19.2056 100.144 18.4461 100.144 17.5255C100.144 16.6279 100.455 15.8799 101.077 15.2815C101.698 14.6601 102.469 14.3494 103.39 14.3494C104.287 14.3494 105.047 14.6601 105.668 15.2815C106.313 15.8799 106.635 16.6279 106.635 17.5255C106.635 18.4231 106.313 19.1826 105.668 19.804C105.047 20.4024 104.287 20.7016 103.39 20.7016ZM100.351 22.9111H106.427V39.4822H100.351V22.9111ZM109.753 22.9111H115.622V24.7408C116.335 23.9583 117.198 23.3714 118.211 22.9801C119.224 22.5889 120.282 22.3932 121.387 22.3932C123.712 22.3932 125.426 23.0031 126.531 24.223C127.659 25.4198 128.223 27.0539 128.223 29.1252V39.4822H122.147V29.9192C122.147 28.055 121.295 27.1228 119.592 27.1228C118.809 27.1228 118.096 27.3071 117.451 27.6753C116.807 28.0206 116.266 28.5613 115.829 29.2978V39.4822H109.753V22.9111ZM138.342 40.0001C136.294 40.0001 134.74 39.4362 133.681 38.3083C132.646 37.1576 132.128 35.5926 132.128 33.6132V27.1228H129.78V22.9111H132.128V17.9398H138.204V22.9111H142.002V27.1228H138.204V32.7848C138.204 33.6823 138.365 34.3267 138.687 34.7181C139.033 35.1091 139.631 35.3048 140.482 35.3048C141.242 35.3048 142.002 35.0977 142.761 34.6834V39.2061C142.163 39.4822 141.518 39.6779 140.828 39.7928C140.16 39.931 139.332 40.0001 138.342 40.0001Z" fill="#FAFAFA"/>
<path fill-rule="evenodd" clip-rule="evenodd" d="M28.4327 29.5307C27.1829 30.6153 26 31.8082 24.8499 32.9971C23.1262 34.5453 21.5463 36.2468 20.1295 38.0802C19.2128 39.2554 18.9464 39.5968 17.7044 39.5968C16.2292 39.5968 15.8299 39.0654 14.821 37.7269C13.5585 36.0146 12.131 34.4304 10.5592 32.9971C9.72009 32.1231 8.79852 31.3322 7.80731 30.6355C4.92889 28.6344 2.74751 25.7841 1.56799 22.4828C0.388465 19.1816 0.269728 15.5944 1.22837 12.2223C2.18701 8.85034 4.17513 5.86205 6.91494 3.67506C9.65472 1.48805 13.0093 0.21161 16.5099 0.0240922C20.0105 -0.163427 23.4822 0.747345 26.44 2.62913C29.3978 4.51093 31.6937 7.26974 33.0072 10.52C34.3204 13.7704 34.5857 17.3498 33.7655 20.7581C32.9453 24.1665 31.0811 27.2335 28.4327 29.5307ZM17.4096 23.8093C18.6381 23.8093 19.839 23.445 20.8605 22.7625C21.882 22.08 22.6781 21.1099 23.1482 19.9749C23.6184 18.8399 23.7414 17.591 23.5017 16.3861C23.262 15.1812 22.6704 14.0744 21.8018 13.2057C20.9331 12.337 19.8263 11.7455 18.6214 11.5058C17.4165 11.2661 16.1676 11.3892 15.0326 11.8593C13.8976 12.3294 12.9275 13.1255 12.245 14.147C11.5625 15.1685 11.1982 16.3694 11.1982 17.5979C11.1982 19.2453 11.8526 20.8252 13.0175 21.99C14.1824 23.1549 15.7623 23.8093 17.4096 23.8093Z" fill="#F2CE4F"/>
</g>
<defs>
<clipPath id="clip0_19_634">
<rect width="216" height="40" fill="white" transform="translate(0.5)"/>
</clipPath>
</defs>
</svg>
