<svg width="50" height="51" viewBox="0 0 50 51" fill="none" xmlns="http://www.w3.org/2000/svg">
<path d="M45.7709 38.6876C45.7709 39.4376 45.6042 40.2084 45.2501 40.9584C44.8959 41.7084 44.4376 42.4168 43.8334 43.0834C42.8126 44.2084 41.6876 45.0209 40.4167 45.5418C39.1667 46.0626 37.8126 46.3334 36.3542 46.3334C34.2292 46.3334 31.9584 45.8334 29.5626 44.8126C27.1667 43.7918 24.7709 42.4168 22.3959 40.6876C20.0001 38.9376 17.7292 37.0001 15.5626 34.8542C13.4167 32.6876 11.4792 30.4168 9.75008 28.0418C8.04175 25.6668 6.66675 23.2918 5.66675 20.9376C4.66675 18.5626 4.16675 16.2917 4.16675 14.1251C4.16675 12.7084 4.41675 11.3542 4.91675 10.1042C5.41675 8.83342 6.20841 7.66675 7.31258 6.62508C8.64591 5.31258 10.1042 4.66675 11.6459 4.66675C12.2292 4.66675 12.8126 4.79175 13.3334 5.04175C13.8751 5.29175 14.3542 5.66675 14.7292 6.20841L19.5626 13.0209C19.9376 13.5417 20.2084 14.0209 20.3959 14.4792C20.5834 14.9167 20.6876 15.3542 20.6876 15.7501C20.6876 16.2501 20.5417 16.7501 20.2501 17.2292C19.9792 17.7084 19.5834 18.2084 19.0834 18.7084L17.5001 20.3542C17.2709 20.5834 17.1667 20.8542 17.1667 21.1876C17.1667 21.3542 17.1876 21.5001 17.2292 21.6667C17.2917 21.8334 17.3542 21.9584 17.3959 22.0834C17.7709 22.7709 18.4167 23.6668 19.3334 24.7501C20.2709 25.8334 21.2709 26.9376 22.3542 28.0418C23.4792 29.1459 24.5626 30.1667 25.6667 31.1042C26.7501 32.0209 27.6459 32.6459 28.3542 33.0209C28.4584 33.0626 28.5834 33.1251 28.7292 33.1876C28.8959 33.2501 29.0626 33.2709 29.2501 33.2709C29.6042 33.2709 29.8751 33.1459 30.1042 32.9168L31.6876 31.3543C32.2084 30.8334 32.7084 30.4376 33.1876 30.1876C33.6667 29.8959 34.1459 29.7501 34.6667 29.7501C35.0626 29.7501 35.4792 29.8334 35.9376 30.0209C36.3959 30.2084 36.8751 30.4793 37.3959 30.8334L44.2917 35.7293C44.8334 36.1043 45.2084 36.5417 45.4376 37.0626C45.6459 37.5834 45.7709 38.1043 45.7709 38.6876Z" stroke="#2D315B" stroke-width="3" stroke-miterlimit="10"/>
</svg>
