<svg width="41" height="40" viewBox="0 0 41 40" fill="none" xmlns="http://www.w3.org/2000/svg">
<path d="M15.5002 36.6666H25.5002C33.8335 36.6666 37.1668 33.3333 37.1668 24.9999V14.9999C37.1668 6.66659 33.8335 3.33325 25.5002 3.33325H15.5002C7.16683 3.33325 3.8335 6.66659 3.8335 14.9999V24.9999C3.8335 33.3333 7.16683 36.6666 15.5002 36.6666Z" stroke="white" stroke-width="1.5" stroke-linecap="round" stroke-linejoin="round"/>
<path d="M20.4998 25.8334C23.7215 25.8334 26.3332 23.2217 26.3332 20.0001C26.3332 16.7784 23.7215 14.1667 20.4998 14.1667C17.2782 14.1667 14.6665 16.7784 14.6665 20.0001C14.6665 23.2217 17.2782 25.8334 20.4998 25.8334Z" stroke="white" stroke-width="1.5" stroke-linecap="round" stroke-linejoin="round"/>
<path d="M29.8937 11.6666H29.913" stroke="white" stroke-width="2" stroke-linecap="round" stroke-linejoin="round"/>
</svg>
