<svg width="50" height="50" viewBox="0 0 50 50" fill="none" xmlns="http://www.w3.org/2000/svg">
<path d="M4.771 16.2083V36.4792C4.771 40.4375 7.5835 42.0625 11.0002 40.1042L15.896 37.3125C16.9585 36.7083 18.7293 36.6458 19.8335 37.2083L30.771 42.6875C31.8752 43.2292 33.646 43.1875 34.7085 42.5833L43.7293 37.4167C44.8752 36.75 45.8335 35.125 45.8335 33.7917V13.5208C45.8335 9.56249 43.021 7.93749 39.6043 9.89582L34.7085 12.6875C33.646 13.2917 31.8752 13.3542 30.771 12.7917L19.8335 7.33332C18.7293 6.79166 16.9585 6.83332 15.896 7.43749L6.87516 12.6042C5.7085 13.2708 4.771 14.8958 4.771 16.2083Z" stroke="#2D315B" stroke-width="3" stroke-linecap="round" stroke-linejoin="round"/>
<path d="M17.8335 8.33331V35.4166" stroke="#2D315B" stroke-width="3" stroke-linecap="round" stroke-linejoin="round"/>
<path d="M32.7708 13.7916V41.6666" stroke="#2D315B" stroke-width="3" stroke-linecap="round" stroke-linejoin="round"/>
</svg>
