<svg width="70" height="86" viewBox="0 0 70 86" fill="none" xmlns="http://www.w3.org/2000/svg">
<path d="M67 23V63C67 79 63 83 47 83H23C7 83 3 79 3 63V23C3 7 7 3 23 3H47C63 3 67 7 67 23Z" stroke="#2D315B" stroke-width="5" stroke-linecap="round" stroke-linejoin="round"/>
<path d="M43 17H27" stroke="#2D315B" stroke-width="5" stroke-linecap="round" stroke-linejoin="round"/>
<path d="M34.9998 71.4C38.424 71.4 41.1998 68.6242 41.1998 65.2C41.1998 61.7758 38.424 59 34.9998 59C31.5756 59 28.7998 61.7758 28.7998 65.2C28.7998 68.6242 31.5756 71.4 34.9998 71.4Z" stroke="#2D315B" stroke-width="5" stroke-linecap="round" stroke-linejoin="round"/>
</svg>
