<svg width="51" height="50" viewBox="0 0 51 50" fill="none" xmlns="http://www.w3.org/2000/svg">
<path d="M26.604 42.5416H13.4373C6.854 42.5416 4.6665 38.1666 4.6665 33.7708V16.2291C4.6665 9.64581 6.854 7.45831 13.4373 7.45831H26.604C33.1873 7.45831 35.3748 9.64581 35.3748 16.2291V33.7708C35.3748 40.3541 33.1665 42.5416 26.604 42.5416Z" stroke="#2D315B" stroke-width="3" stroke-linecap="round" stroke-linejoin="round"/>
<path d="M41.1667 35.625L35.375 31.5625V18.4167L41.1667 14.3542C44 12.375 46.3333 13.5834 46.3333 17.0625V32.9375C46.3333 36.4167 44 37.625 41.1667 35.625Z" stroke="#2D315B" stroke-width="3" stroke-linecap="round" stroke-linejoin="round"/>
<path d="M24.4585 22.9167C26.1844 22.9167 27.5835 21.5176 27.5835 19.7917C27.5835 18.0658 26.1844 16.6667 24.4585 16.6667C22.7326 16.6667 21.3335 18.0658 21.3335 19.7917C21.3335 21.5176 22.7326 22.9167 24.4585 22.9167Z" stroke="#2D315B" stroke-width="3" stroke-linecap="round" stroke-linejoin="round"/>
</svg>
